# Blender 4.0.1
# www.blender.org
mtllib SimpleA320model.mtl
o Cone
v 0.000000 1.000000 -0.262381
v 0.500000 0.866026 -0.262381
v 0.866025 0.500000 -0.262381
v 1.000000 0.000000 -0.262381
v 0.866025 -0.500000 -0.262381
v 0.500000 -0.866025 -0.262381
v 0.000000 -1.000000 -0.262381
v -0.500000 -0.866025 -0.262381
v -0.866025 -0.500000 -0.262381
v -1.000000 0.000000 -0.262381
v -0.866025 0.500000 -0.262381
v -0.500000 0.866026 -0.262381
v 0.000000 -0.000000 6.362831
vn 0.2561 0.9558 0.1443
vn 0.6997 0.6997 0.1443
vn 0.9558 0.2561 0.1443
vn 0.9558 -0.2561 0.1443
vn 0.6997 -0.6997 0.1443
vn 0.2561 -0.9558 0.1443
vn -0.2561 -0.9558 0.1443
vn -0.6997 -0.6997 0.1443
vn -0.9558 -0.2561 0.1443
vn -0.9558 0.2561 0.1443
vn -0.0000 -0.0000 -1.0000
vn -0.6997 0.6997 0.1443
vn -0.2561 0.9558 0.1443
vt 0.250000 0.490000
vt 0.250000 0.250000
vt 0.370000 0.457846
vt 0.457846 0.370000
vt 0.490000 0.250000
vt 0.457846 0.130000
vt 0.370000 0.042154
vt 0.250000 0.010000
vt 0.130000 0.042154
vt 0.042154 0.130000
vt 0.010000 0.250000
vt 0.042154 0.370000
vt 0.750000 0.490000
vt 0.870000 0.457846
vt 0.957846 0.370000
vt 0.990000 0.250000
vt 0.957846 0.130000
vt 0.870000 0.042154
vt 0.750000 0.010000
vt 0.630000 0.042154
vt 0.542154 0.130000
vt 0.510000 0.250000
vt 0.542154 0.370000
vt 0.630000 0.457846
vt 0.130000 0.457846
s 0
usemtl Material.001
f 1/1/1 13/2/1 2/3/1
f 2/3/2 13/2/2 3/4/2
f 3/4/3 13/2/3 4/5/3
f 4/5/4 13/2/4 5/6/4
f 5/6/5 13/2/5 6/7/5
f 6/7/6 13/2/6 7/8/6
f 7/8/7 13/2/7 8/9/7
f 8/9/8 13/2/8 9/10/8
f 9/10/9 13/2/9 10/11/9
f 10/11/10 13/2/10 11/12/10
f 1/13/11 2/14/11 3/15/11 4/16/11 5/17/11 6/18/11 7/19/11 8/20/11 9/21/11 10/22/11 11/23/11 12/24/11
f 11/12/12 13/2/12 12/25/12
f 12/25/13 13/2/13 1/1/13
